<svg xmlns="http://www.w3.org/2000/svg" viewBox="0 0 300 370" role="img"><title>Zombie Jamboree without paddle</title><ellipse cx="150" cy="348" rx="77" ry="10" fill="#123f56" opacity=".10"/><g stroke-linejoin="round"><path d="m118 259-9 69h31l10-59 11 59h31l-10-69" fill="#393151"/><path d="M109 326h33v17H99q-5-13 10-17m53 0h32l16 17h-48" fill="#faf0de"/><path d="M107 184q43-18 86 0l-7 84h-76Z" fill="#b7e878"/><path d="m109 187-21 9-17 66 19 5 30-66m71-14 20 10 18 64-19 8-28-68" fill="#b7e878"/><g fill="#e5b18a"><circle cx="80" cy="269" r="13"/><circle cx="220" cy="269" r="13"/><rect x="137" y="155" width="26" height="30" rx="9"/></g><path d="m108 187 32 15-10 30-22-9m78 9-24-6 8-32 22 8" fill="#ffae65"/><path d="m117 258 10-9 9 14 13-11 13 12 11-11 13 8" fill="#393151"/><path d="M169 210l16 8m-12-12-3 10m10-6-3 10" stroke="#393151" stroke-width="2"/><rect x="108" y="84" width="84" height="85" rx="35" fill="#e5b18a"/><circle cx="108" cy="130" r="9" fill="#e5b18a"/><circle cx="192" cy="130" r="9" fill="#e5b18a"/><rect x="108" y="84" width="84" height="85" rx="35" fill="#b7e878"/><path d="M105 116q-15-52 43-49 62-4 48 50l-17-21-18 9-34-9Z" fill="#393151"/><g fill="#393151"><ellipse cx="132" cy="126" rx="4" ry="6"/><ellipse cx="169" cy="126" rx="4" ry="6"/></g><path d="M139 147q12 11 24-2" fill="none" stroke="#393151" stroke-width="3" stroke-linecap="round"/><ellipse cx="123" cy="139" rx="8" ry="4" fill="#ffae65" opacity=".55"/><ellipse cx="178" cy="139" rx="8" ry="4" fill="#ffae65" opacity=".55"/><path d="M168 103l17 7m-13-10-4 9m12-5-4 9" stroke="#393151" stroke-width="2"/></g></svg>
