<svg xmlns="http://www.w3.org/2000/svg" viewBox="0 0 320 260" role="img"><title>Neon two-step</title><g transform="translate(9 40) scale(0.4375)"><rect x="20" y="48" width="120" height="80" rx="12" fill="#272455"/><path d="M54 47V33h52v14" fill="none" stroke="#54e5e0" stroke-width="6"/><circle cx="49" cy="92" r="23" fill="#ff70b2"/><circle cx="49" cy="92" r="17" fill="#272455"/><circle cx="49" cy="92" r="8" fill="#54e5e0"/><circle cx="111" cy="92" r="23" fill="#ff70b2"/><circle cx="111" cy="92" r="17" fill="#272455"/><circle cx="111" cy="92" r="8" fill="#54e5e0"/><rect x="66" y="73" width="28" height="12" rx="2" fill="#ffe09b"/><path d="M70 104h20M30 59h100" stroke="#54e5e0" stroke-width="3"/><path d="M120 46l17-30" stroke="#272455" stroke-width="3"/></g><g transform="translate(233 20) scale(0.4875)"><defs><clipPath id="sun23320"><circle cx="80" cy="80" r="56"/></clipPath></defs><g clip-path="url(#sun23320)"><path d="M20 20h120v120H20Z" fill="#54e5e0"/><path d="M20 20h120v55H20Z" fill="#ff70b2"/><path d="M20 80h120v12H20Z" fill="#ff70b2"/><path d="M20 98h120v10H20Z" fill="#ff70b2"/><path d="M20 114h120v8H20Z" fill="#ff70b2"/><path d="M20 129h120v7H20Z" fill="#ff70b2"/></g></g><g transform="translate(97 1) scale(0.2875)"><path d="M74 140q20-52 2-89" fill="none" stroke="#272455" stroke-width="10"/><path d="M79 54Q36 9 13 69q37-21 63-8Q35 55 31 102q27-33 48-39Q106 32 146 69q-12-52-63-17Q103 8 126 19q-33-23-47 35" fill="#54e5e0"/></g><g transform="translate(150 160) scale(0.375)"><rect x="20" y="39" width="120" height="82" rx="12" fill="#ff70b2"/><rect x="31" y="51" width="98" height="42" rx="8" fill="#272455"/><path d="m47 116 9-18h48l9 18" fill="#54e5e0"/><circle cx="51" cy="72" r="12" fill="#ffe09b"/><circle cx="51" cy="72" r="5" fill="#272455"/><circle cx="109" cy="72" r="12" fill="#ffe09b"/><circle cx="109" cy="72" r="5" fill="#272455"/><path d="M65 68h30v8H65Z" fill="#54e5e0"/></g><g transform="translate(25 188) scale(0.25625)"><path d="M26 112 80 24l54 88Z" fill="none" stroke="#ff70b2" stroke-width="9" stroke-linejoin="round"/><path d="M24 133h112" stroke="#54e5e0" stroke-width="7"/></g><g transform="translate(258 187) scale(0.225)"><rect x="20" y="48" width="120" height="80" rx="12" fill="#272455"/><path d="M54 47V33h52v14" fill="none" stroke="#54e5e0" stroke-width="6"/><circle cx="49" cy="92" r="23" fill="#ff70b2"/><circle cx="49" cy="92" r="17" fill="#272455"/><circle cx="49" cy="92" r="8" fill="#54e5e0"/><circle cx="111" cy="92" r="23" fill="#ff70b2"/><circle cx="111" cy="92" r="17" fill="#272455"/><circle cx="111" cy="92" r="8" fill="#54e5e0"/><rect x="66" y="73" width="28" height="12" rx="2" fill="#ffe09b"/><path d="M70 104h20M30 59h100" stroke="#54e5e0" stroke-width="3"/><path d="M120 46l17-30" stroke="#272455" stroke-width="3"/></g></svg>
